<?xml version="1.0" encoding="iso-8859-1"?>
<!-- Uploaded to: SVG Repo, www.svgrepo.com, Generator: SVG Repo Mixer Tools -->
<svg fill="#ee674a" height="800px" width="800px" version="1.1" id="Layer_1" xmlns="http://www.w3.org/2000/svg" xmlns:xlink="http://www.w3.org/1999/xlink" 
	 viewBox="0 0 512 512" xml:space="preserve">
<g>
	<g>
		<path d="M370.777,36.162c-45.812,0-88.429,22.216-114.777,58.931c-26.348-36.715-68.965-58.931-114.777-58.931
			C63.352,36.162,0,99.515,0,177.386c0,33.714,17.311,72.279,51.452,114.625c26.9,33.366,58.515,62.32,83.05,83.817
			c28.069,24.593,114.07,96.891,114.936,97.619c1.897,1.594,4.23,2.392,6.562,2.392c2.333,0,4.665-0.798,6.562-2.392
			c0.866-0.727,86.866-73.025,114.936-97.619c24.536-21.497,56.15-50.451,83.05-83.817C494.689,249.664,512,211.099,512,177.386
			C512,99.515,448.648,36.162,370.777,36.162z M364.055,360.485C340.686,380.961,276.715,434.874,256,452.31
			c-20.715-17.435-84.685-71.349-108.055-91.824c-18.397-16.12-58.712-51.447-89.126-92.247h36.909l35.77,35.77
			c2.917,2.916,7.305,3.788,11.115,2.21c3.811-1.579,6.296-5.297,6.296-9.423v-72.27l114.669,114.669
			c1.952,1.951,4.56,2.987,7.214,2.987c1.314,0,2.64-0.255,3.901-0.777c3.811-1.579,6.296-5.297,6.296-9.423V193.93l81.776,81.776
			c1.912,1.912,4.507,2.987,7.212,2.987h13.514c5.633,0,10.199-4.566,10.199-10.199c0-5.633-4.566-10.199-10.199-10.199h-9.289
			l-96.2-96.2c-2.918-2.917-7.305-3.789-11.115-2.21c-3.811,1.579-6.296,5.297-6.296,9.423v138.054l-114.669-114.67
			c-2.917-2.917-7.306-3.788-11.115-2.21c-3.81,1.578-6.296,5.297-6.296,9.422v72.27l-21.346-21.346
			c-1.912-1.912-4.507-2.987-7.212-2.987H44.832c-14.507-23.272-24.433-47.521-24.433-70.455
			c0-66.623,54.202-120.825,120.825-120.825c43.997,0,84.557,23.959,105.848,62.526c1.795,3.252,5.215,5.27,8.928,5.27
			s7.134-2.018,8.928-5.27c21.292-38.567,61.851-62.526,105.848-62.526c66.623,0,120.825,54.202,120.825,120.825
			C491.602,248.736,395.602,332.846,364.055,360.485z"/>
	</g>
</g>
<g>
	<g>
		<path d="M423.267,258.295h-4.08c-5.633,0-10.199,4.566-10.199,10.199c0,5.633,4.566,10.199,10.199,10.199h4.08
			c5.633,0,10.199-4.566,10.199-10.199C433.466,262.861,428.9,258.295,423.267,258.295z"/>
	</g>
</g>
</svg>